<svg width="140" height="28" viewBox="0 0 140 28" fill="none" xmlns="http://www.w3.org/2000/svg">
<path fill-rule="evenodd" clip-rule="evenodd" d="M11.1416 12.7017C11.1416 11.6682 11.1426 10.6337 11.1411 9.59924C11.1401 8.54578 11.7033 8.16334 12.6993 8.2592C14.2526 8.40898 15.4852 9.19783 16.6166 10.1969C17.3965 10.8844 18.2058 11.5219 19.2597 11.7466C20.7725 12.0686 21.8544 11.3002 21.9713 9.7595C22.0791 8.33858 21.5174 7.11737 20.6607 6.03246C17.8433 2.45969 13.0303 1.13413 8.76309 2.73578C4.48735 4.34093 1.73887 8.5323 1.99599 13.0602C2.25861 17.6974 5.43296 21.5647 9.90292 22.6931C14.3229 23.8074 18.9227 21.9277 21.3552 18.0544C21.785 17.3694 22.0611 16.0173 23.2454 16.7742C24.4441 17.5411 23.3972 18.4737 22.9473 19.1977C20.0725 23.8214 14.5252 25.9743 9.23789 24.5768C4.11988 23.2228 0.276507 18.5446 0.0173864 13.3507C-0.263203 7.73746 2.87121 2.87208 8.05712 0.870514C13.0214 -1.04518 18.8319 0.538999 22.169 4.73336C23.2893 6.1413 24.0003 7.72947 23.9918 9.5568C23.9773 12.5714 21.4765 14.4337 18.5792 13.6398C17.4668 13.3348 16.5412 12.7192 15.6635 12.0042C15.1757 11.6073 14.6849 11.2149 14.1802 10.8394C13.4487 10.2962 13.0863 10.3966 13.1447 11.4026C13.1976 12.2988 13.1472 13.2005 13.1616 14.0997C13.1651 14.3488 13.0458 14.6768 13.3349 14.8221C13.6135 14.9614 13.8596 14.7292 14.0454 14.5615C14.3779 14.2629 14.642 13.8915 14.967 13.5839C15.34 13.2329 15.7838 13.206 16.1957 13.505C16.6081 13.8036 16.687 14.2115 16.5093 14.7003C16.0175 16.0543 13.4542 17.4398 12.0208 17.1247C11.2844 16.9625 11.1531 16.4203 11.1446 15.8032C11.1316 14.7697 11.1416 13.7357 11.1416 12.7017Z" fill="#0EC9FF"/>
<path fill-rule="evenodd" clip-rule="evenodd" d="M8.5174 9.34012C8.87537 9.34012 9.24383 9.2852 9.58883 9.3521C10.0841 9.44946 10.3552 9.81442 10.3492 10.3212C10.3432 10.7685 10.0981 11.114 9.66322 11.2109C8.86988 11.3866 8.05707 11.3721 7.26273 11.2149C6.83037 11.128 6.56825 10.7835 6.55677 10.3392C6.54379 9.83339 6.82438 9.46793 7.31266 9.36308C7.70109 9.2802 8.11449 9.31116 8.5159 9.29169C8.5164 9.30667 8.5164 9.32314 8.5174 9.34012Z" fill="#0EC9FF"/>
<path fill-rule="evenodd" clip-rule="evenodd" d="M8.42712 14.1426C8.7841 14.1426 9.14457 14.1086 9.49706 14.1501C10.0777 14.219 10.3633 14.6074 10.3413 15.1656C10.3209 15.6718 10.0078 16.0008 9.49506 16.0363C8.91741 16.0767 8.33426 16.0493 7.75461 16.0638C7.0731 16.0802 6.56535 15.7837 6.56635 15.0922C6.56635 14.4002 7.0781 14.1031 7.7576 14.1206C7.98078 14.1266 8.20445 14.1211 8.42762 14.1211C8.42712 14.1276 8.42712 14.1356 8.42712 14.1426Z" fill="#0EC9FF"/>
<path d="M39.188 6.27261C37.5459 6.27261 36.2883 6.77388 35.4145 7.77591C34.5398 8.77845 34.1034 10.1959 34.1034 12.0292C34.1034 13.884 34.5882 15.3129 35.5583 16.3144C36.5284 17.3169 37.834 17.8172 39.4761 17.8172C40.3503 17.8172 41.0912 17.7004 41.6988 17.4652C42.3064 17.2311 42.8871 16.9645 43.4418 16.6659C43.8042 16.9645 44.0863 17.3214 44.289 17.7373C44.4912 18.1527 44.5931 18.638 44.5931 19.1922C44.5931 20.0669 44.1078 20.8073 43.1377 21.415C42.1671 22.0226 40.6913 22.3266 38.7082 22.3266C37.2793 22.3266 35.9363 22.1234 34.6786 21.719C33.4204 21.3141 32.3226 20.6905 31.3844 19.8482C30.4463 19.0065 29.7054 17.9405 29.1617 16.6499C28.618 15.3603 28.3464 13.8196 28.3464 12.0287C28.3464 10.3656 28.6075 8.90027 29.1302 7.63113C29.6525 6.36298 30.3664 5.29155 31.2731 4.41733C32.1793 3.54311 33.2397 2.88208 34.4554 2.43473C35.6707 1.98689 36.9708 1.76321 38.3572 1.76321C40.3184 1.76321 41.8376 2.08325 42.9146 2.72281C43.991 3.36237 44.5297 4.18317 44.5297 5.18521C44.5297 5.73989 44.3909 6.21969 44.1138 6.6246C43.8362 7.03001 43.5167 7.34954 43.1542 7.58419C42.5995 7.22172 42.0079 6.91268 41.3793 6.65655C40.7497 6.40043 40.0198 6.27261 39.188 6.27261Z" fill="#010101"/>
<path d="M52.7481 5.72891C53.8994 5.72891 54.9494 5.84624 55.8985 6.0809C56.8471 6.31555 57.6574 6.67253 58.3289 7.15233C59.0005 7.63213 59.5172 8.23974 59.8802 8.97516C60.2426 9.71058 60.4239 10.5798 60.4239 11.5813V18.7449C60.4239 19.2995 60.2691 19.7524 59.9601 20.1039C59.6505 20.4559 59.283 20.7594 58.8567 21.0155C57.4707 21.8468 55.5196 22.2627 53.0042 22.2627C51.8739 22.2627 50.8559 22.1559 49.9502 21.9427C49.0435 21.73 48.2657 21.41 47.6156 20.9831C46.9651 20.5567 46.4643 20.013 46.1123 19.352C45.7603 18.6914 45.5846 17.9241 45.5846 17.0493C45.5846 15.5785 46.0215 14.4486 46.8957 13.6593C47.7699 12.871 49.1234 12.3802 50.9572 12.188L55.1466 11.7401V11.5164C55.1466 10.8983 54.875 10.456 54.3313 10.1894C53.7876 9.92327 53.0042 9.78947 51.9807 9.78947C51.1704 9.78947 50.3816 9.87484 49.6142 10.0456C48.8468 10.2163 48.1533 10.4295 47.5352 10.6852C47.2576 10.4934 47.0235 10.2004 46.8318 9.80594C46.64 9.41152 46.5437 9.00162 46.5437 8.57475C46.5437 8.02056 46.6765 7.57821 46.9436 7.24769C47.2097 6.91717 47.6201 6.63509 48.1748 6.39993C48.7929 6.16577 49.5228 5.99502 50.3656 5.88818C51.2074 5.78233 52.0012 5.72891 52.7481 5.72891ZM53.0037 18.297C53.3662 18.297 53.7656 18.2601 54.203 18.1852C54.6398 18.1108 54.9649 18.0094 55.1786 17.8816V15.3229L52.8759 15.5146C52.2788 15.5575 51.7885 15.6853 51.4046 15.8985C51.0206 16.1117 50.8289 16.4317 50.8289 16.8581C50.8289 17.285 50.9937 17.631 51.3247 17.8976C51.6552 18.1642 52.2149 18.297 53.0037 18.297Z" fill="#010101"/>
<path d="M68.3863 21.719C68.1731 21.7829 67.8371 21.8468 67.3788 21.9107C66.92 21.9746 66.4461 22.0066 65.9559 22.0066C65.4866 22.0066 65.0657 21.9746 64.6927 21.9107C64.3193 21.8468 64.0052 21.719 63.7491 21.5268C63.493 21.3351 63.2958 21.074 63.1575 20.7434C63.0187 20.4129 62.9498 19.9816 62.9498 19.4483V9.85437C62.9498 9.36409 63.0401 8.94271 63.2214 8.59122C63.4021 8.23924 63.6637 7.9252 64.0052 7.6476C64.3457 7.37101 64.7671 7.11988 65.2684 6.8962C65.7691 6.67253 66.3079 6.47532 66.8835 6.30457C67.4592 6.13432 68.0558 6.00101 68.6744 5.90465C69.2925 5.80879 69.9106 5.76086 70.5292 5.76086C71.5527 5.76086 72.3625 5.95808 72.9596 6.3525C73.5562 6.74742 73.8548 7.39198 73.8548 8.28717C73.8548 8.58623 73.8119 8.8788 73.727 9.16638C73.6416 9.45396 73.5353 9.71558 73.407 9.94973C72.9591 9.94973 72.5008 9.9712 72.0315 10.0136C71.5622 10.0566 71.1043 10.1205 70.6565 10.2054C70.2086 10.2907 69.7878 10.3811 69.3933 10.477C68.9984 10.5728 68.6629 10.6847 68.3858 10.813V21.719H68.3863Z" fill="#010101"/>
<path d="M82.1062 5.72891C83.3854 5.72891 84.5736 5.89417 85.672 6.22469C86.7699 6.5557 87.7135 7.06196 88.5024 7.74396C89.2907 8.42646 89.9093 9.28421 90.3572 10.3182C90.805 11.3527 91.0287 12.5839 91.0287 14.0123C91.0287 15.3768 90.8365 16.5705 90.453 17.594C90.0691 18.6175 89.5254 19.4758 88.8219 20.1688C88.1184 20.8618 87.2707 21.379 86.2791 21.72C85.2876 22.061 84.1847 22.2318 82.9695 22.2318C82.0523 22.2318 81.1991 22.093 80.4107 21.8164V27.1251C80.197 27.189 79.856 27.2579 79.3872 27.3328C78.9179 27.4072 78.4381 27.4446 77.9483 27.4446C77.479 27.4446 77.0576 27.4127 76.6847 27.3488C76.3112 27.2849 75.9972 27.157 75.7416 26.9648C75.4859 26.7731 75.2937 26.5115 75.1659 26.1815C75.0381 25.8505 74.9742 25.4191 74.9742 24.8864V9.53434C74.9742 8.95869 75.0965 8.48987 75.3421 8.1274C75.5868 7.76493 75.9228 7.43492 76.3497 7.13585C77.0102 6.70948 77.8315 6.36848 78.8121 6.11235C79.7926 5.85673 80.8905 5.72891 82.1062 5.72891ZM82.1701 17.9455C84.3654 17.9455 85.4643 16.6345 85.4643 14.0123C85.4643 12.6483 85.1922 11.6353 84.6485 10.9742C84.1048 10.3137 83.3215 9.98269 82.298 9.98269C81.8926 9.98269 81.5306 10.0306 81.2111 10.1265C80.891 10.2223 80.6139 10.3342 80.3793 10.4625V17.4982C80.6349 17.626 80.912 17.7328 81.2111 17.8182C81.5091 17.9031 81.8286 17.9455 82.1701 17.9455Z" fill="#0EC9FF"/>
<path d="M98.4163 21.719C98.1811 21.7615 97.8351 21.8199 97.3768 21.8948C96.918 21.9691 96.4546 22.0066 95.9858 22.0066C95.517 22.0066 95.0956 21.9746 94.7227 21.9107C94.3492 21.8468 94.0352 21.719 93.7796 21.5268C93.5234 21.3351 93.3262 21.074 93.1879 20.7434C93.0491 20.4129 92.9802 19.9816 92.9802 19.4483V0.899487C93.2144 0.857049 93.5609 0.798635 94.0197 0.723744C94.4775 0.649353 94.9414 0.611908 95.4107 0.611908C95.8795 0.611908 96.3004 0.643861 96.6738 0.707768C97.0468 0.771674 97.3613 0.899487 97.6174 1.09171C97.8731 1.28343 98.0703 1.54504 98.2091 1.87506C98.3479 2.20607 98.4173 2.63744 98.4173 3.17016V21.719H98.4163Z" fill="#0EC9FF"/>
<path d="M101.039 6.43238C101.251 6.36848 101.587 6.30457 102.046 6.24067C102.504 6.17676 102.979 6.14481 103.469 6.14481C103.938 6.14481 104.359 6.17676 104.733 6.24067C105.105 6.30457 105.42 6.43239 105.676 6.6246C105.931 6.81632 106.128 7.07794 106.267 7.40796C106.406 7.73847 106.476 8.17034 106.476 8.70306V15.579C106.476 16.4532 106.688 17.0768 107.115 17.4498C107.541 17.8232 108.16 18.0094 108.97 18.0094C109.46 18.0094 109.86 17.967 110.169 17.8816C110.478 17.7968 110.718 17.7114 110.889 17.6255V6.43238C111.101 6.36848 111.437 6.30457 111.896 6.24067C112.354 6.17676 112.829 6.14481 113.32 6.14481C113.788 6.14481 114.209 6.17676 114.583 6.24067C114.956 6.30457 115.27 6.43239 115.526 6.6246C115.782 6.81632 115.979 7.07794 116.117 7.40796C116.256 7.73847 116.325 8.17034 116.325 8.70306V18.4253C116.325 19.4918 115.877 20.2911 114.982 20.8238C114.236 21.2931 113.346 21.6501 112.312 21.8953C111.277 22.1399 110.153 22.2632 108.938 22.2632C107.787 22.2632 106.726 22.1354 105.756 21.8793C104.786 21.6237 103.949 21.2292 103.246 20.696C102.542 20.1633 101.999 19.4758 101.615 18.6335C101.231 17.7918 101.039 16.7737 101.039 15.5795V6.43238H101.039Z" fill="#0EC9FF"/>
<path d="M126.43 5.72891C127.646 5.72891 128.749 5.88369 129.74 6.19273C130.732 6.50178 131.568 6.9017 132.251 7.39198C132.677 7.69104 133.013 8.02106 133.258 8.38353C133.503 8.7465 133.626 9.21531 133.626 9.79047V20.9836C133.626 22.1134 133.413 23.089 132.987 23.9098C132.56 24.7301 131.979 25.4126 131.244 25.9563C130.508 26.5 129.645 26.8999 128.653 27.1556C127.661 27.4112 126.601 27.539 125.471 27.539C123.531 27.539 122.006 27.2779 120.897 26.7556C119.789 26.2329 119.234 25.3856 119.234 24.2134C119.234 23.7226 119.336 23.2912 119.538 22.9183C119.741 22.5448 119.97 22.2627 120.226 22.071C120.844 22.412 121.542 22.6996 122.32 22.9342C123.098 23.1689 123.903 23.2862 124.735 23.2862C125.886 23.2862 126.803 23.0945 127.485 22.7106C128.167 22.3266 128.509 21.7085 128.509 20.8558V20.344C127.635 20.728 126.569 20.9197 125.31 20.9197C124.351 20.9197 123.44 20.7754 122.576 20.4878C121.713 20.2002 120.956 19.7524 120.306 19.1448C119.655 18.5372 119.133 17.7533 118.739 16.7942C118.345 15.8346 118.147 14.6943 118.147 13.3722C118.147 12.0721 118.355 10.9418 118.771 9.98219C119.187 9.02309 119.763 8.22875 120.498 7.59967C121.233 6.97109 122.108 6.50178 123.121 6.19273C124.133 5.88369 125.236 5.72891 126.43 5.72891ZM128.413 10.3661C128.264 10.2812 128.045 10.1959 127.758 10.1105C127.47 10.0256 127.112 9.98269 126.686 9.98269C125.641 9.98269 124.858 10.2763 124.336 10.8624C123.813 11.449 123.552 12.2853 123.552 13.3727C123.552 14.6094 123.813 15.4996 124.336 16.0433C124.858 16.587 125.524 16.8591 126.335 16.8591C127.209 16.8591 127.902 16.6569 128.413 16.2515V10.3661Z" fill="#0EC9FF"/>
<path d="M140 5.00598C140 6.6296 138.725 7.90424 137.067 7.90424C135.426 7.90424 134.116 6.6301 134.116 5.00598C134.116 3.4173 135.426 2.14267 137.067 2.14267C138.725 2.14267 140 3.4173 140 5.00598ZM134.85 5.00598C134.85 6.28061 135.793 7.29313 137.084 7.29313C138.341 7.29313 139.267 6.28061 139.267 5.02345C139.267 3.74882 138.341 2.71883 137.067 2.71883C135.792 2.71883 134.85 3.74882 134.85 5.00598ZM136.613 6.50728H135.949V3.64397C136.211 3.59155 136.578 3.5566 137.049 3.5566C137.591 3.5566 137.835 3.64397 138.044 3.76629C138.201 3.88861 138.323 4.11528 138.323 4.39487C138.323 4.70891 138.079 4.95356 137.73 5.0584V5.09335C138.009 5.1982 138.167 5.40739 138.254 5.79183C138.341 6.22819 138.393 6.40293 138.463 6.50778H137.747C137.66 6.40293 137.607 6.14132 137.521 5.8093C137.468 5.49476 137.293 5.35547 136.927 5.35547H136.612V6.50728H136.613ZM136.63 4.88366H136.944C137.311 4.88366 137.608 4.76134 137.608 4.46477C137.608 4.20265 137.416 4.02841 136.997 4.02841C136.822 4.02841 136.7 4.04588 136.63 4.06336V4.88366Z" fill="#0EC9FF"/>
</svg>
